<svg xmlns="http://www.w3.org/2000/svg" width="1200" height="630" viewBox="0 0 1200 630" role="img" aria-labelledby="title desc">
  <title id="title">GST Registration and Monthly Compliance Roadmap for Small Businesses</title>
  <desc id="desc">MyeCA blog cover based on the article content: GST registration depends on</desc>
  <rect width="1200" height="630" fill="#edf8f6"/>
  <rect x="24" y="24" width="1152" height="582" rx="30" fill="#fbfffe" stroke="#0f3b37" stroke-width="3"/>
  <text x="72" y="88" font-family="Arial, Helvetica, sans-serif" font-size="23" font-weight="800" letter-spacing="5" fill="#0f3b37">MYECA INSIGHTS</text>
  <text x="72" y="154" font-family="Arial, Helvetica, sans-serif" font-size="74" font-weight="900" fill="#0f3b37">GST Registration and</text>
  <text x="72" y="236" font-family="Arial, Helvetica, sans-serif" font-size="74" font-weight="900" fill="#0f3b37">Monthly Compliance Roadmap</text>
  <rect x="72" y="306" width="330" height="48" rx="24" fill="#fff" stroke="#0f3b37" stroke-width="3"/>
  <text x="98" y="338" font-family="Arial, Helvetica, sans-serif" font-size="24" font-weight="800" fill="#0f3b37">GST registration depends on</text>
  <g transform="translate(398 244)">
    <rect x="22" y="18" width="270" height="210" rx="16" fill="#fff" stroke="#0f3b37" stroke-width="6"/>
    <rect x="58" y="0" width="270" height="210" rx="16" fill="#fffdfa" stroke="#0f3b37" stroke-width="6"/>
    <text x="94" y="62" font-family="Arial, Helvetica, sans-serif" font-size="48" font-weight="900" fill="#1f8a70">GST</text>
    
    <line x1="38" y1="70" x2="158" y2="70" stroke="#0f3b37" stroke-width="5"/>
    <line x1="38" y1="96" x2="182" y2="96" stroke="#0f3b37" stroke-width="5"/>
    <line x1="38" y1="122" x2="140" y2="122" stroke="#0f3b37" stroke-width="5"/>
    <circle cx="250" cy="156" r="42" fill="#f0b85a" stroke="#0f3b37" stroke-width="5"/>
    <text x="222" y="169" font-family="Arial, Helvetica, sans-serif" font-size="34" font-weight="900" fill="#0f3b37">2B</text>
  </g>
  <g transform="translate(824 262)">
    <rect x="0" y="0" width="300" height="68" rx="18" fill="#fff" stroke="#0f3b37" stroke-width="4"/>
    <circle cx="38" cy="34" r="16" fill="#1f8a70" stroke="#0f3b37" stroke-width="3"/>
    <text x="70" y="43" font-family="Arial, Helvetica, sans-serif" font-size="24" font-weight="800" fill="#0f3b37">GST registration depends on</text>
  </g>
  <g transform="translate(824 352)">
    <rect x="0" y="0" width="300" height="68" rx="18" fill="#fff" stroke="#0f3b37" stroke-width="4"/>
    <circle cx="38" cy="34" r="16" fill="#f0b85a" stroke="#0f3b37" stroke-width="3"/>
    <text x="70" y="43" font-family="Arial, Helvetica, sans-serif" font-size="24" font-weight="800" fill="#0f3b37">Monthly reconciliation of</text>
  </g>
  <g transform="translate(824 442)">
    <rect x="0" y="0" width="300" height="68" rx="18" fill="#fff" stroke="#0f3b37" stroke-width="4"/>
    <circle cx="38" cy="34" r="16" fill="#1f8a70" stroke="#0f3b37" stroke-width="3"/>
    <text x="70" y="43" font-family="Arial, Helvetica, sans-serif" font-size="24" font-weight="800" fill="#0f3b37">Archive returns, challans, and</text>
  </g>
  <text x="72" y="574" font-family="Arial, Helvetica, sans-serif" font-size="28" font-weight="900" fill="#0f3b37">MyeCA.in</text>
</svg>
