<svg xmlns="http://www.w3.org/2000/svg" width="1200" height="630" viewBox="0 0 1200 630" role="img" aria-labelledby="title desc">
  <title id="title">When Will ITR Filing Start for AY 2026-27?</title>
  <desc id="desc">Warm editorial MyeCA SVG diagram showing ITR form selection and filing-start readiness.</desc>
  <rect width="1200" height="630" fill="#fff4df"/>
  <rect x="24" y="24" width="1152" height="582" rx="30" fill="#fff8ec" stroke="#10324a" stroke-width="3"/>
  <text x="72" y="88" font-family="Arial, Helvetica, sans-serif" font-size="23" font-weight="800" letter-spacing="5" fill="#10324a">MYECA INSIGHTS</text>
  <text x="72" y="160" font-family="Arial, Helvetica, sans-serif" font-size="82" font-weight="900" fill="#10324a">ITR Filing Start</text>
  <rect x="72" y="184" width="616" height="44" rx="22" fill="#ffffff" stroke="#10324a" stroke-width="2"/>
  <text x="98" y="214" font-family="Arial, Helvetica, sans-serif" font-size="24" font-weight="700" fill="#10324a">Form 16 + AIS + Form 26AS, then pick your ITR form</text>

  <g transform="translate(78 264) rotate(-7)">
    <rect x="0" y="0" width="192" height="142" rx="4" fill="#fffdfa" stroke="#10324a" stroke-width="5"/>
    <text x="24" y="48" font-family="Arial, Helvetica, sans-serif" font-size="36" font-weight="900" fill="#10324a">ITR-1</text>
    <line x1="24" y1="76" x2="150" y2="76" stroke="#10324a" stroke-width="4"/>
    <line x1="24" y1="98" x2="164" y2="98" stroke="#10324a" stroke-width="4"/>
    <line x1="24" y1="120" x2="128" y2="120" stroke="#10324a" stroke-width="4"/>
  </g>
  <g transform="translate(80 420) rotate(-5)">
    <rect x="0" y="0" width="192" height="118" rx="4" fill="#fffdfa" stroke="#10324a" stroke-width="5"/>
    <text x="24" y="45" font-family="Arial, Helvetica, sans-serif" font-size="36" font-weight="900" fill="#10324a">ITR-2</text>
    <line x1="24" y1="72" x2="154" y2="72" stroke="#10324a" stroke-width="4"/>
    <line x1="24" y1="94" x2="136" y2="94" stroke="#10324a" stroke-width="4"/>
  </g>
  <g transform="translate(930 264) rotate(7)">
    <rect x="0" y="0" width="192" height="142" rx="4" fill="#fffdfa" stroke="#10324a" stroke-width="5"/>
    <text x="24" y="48" font-family="Arial, Helvetica, sans-serif" font-size="36" font-weight="900" fill="#10324a">ITR-3</text>
    <line x1="24" y1="76" x2="150" y2="76" stroke="#10324a" stroke-width="4"/>
    <line x1="24" y1="98" x2="164" y2="98" stroke="#10324a" stroke-width="4"/>
    <line x1="24" y1="120" x2="118" y2="120" stroke="#10324a" stroke-width="4"/>
  </g>
  <g transform="translate(930 420) rotate(5)">
    <rect x="0" y="0" width="192" height="118" rx="4" fill="#fffdfa" stroke="#10324a" stroke-width="5"/>
    <text x="24" y="45" font-family="Arial, Helvetica, sans-serif" font-size="36" font-weight="900" fill="#10324a">ITR-4</text>
    <line x1="24" y1="72" x2="154" y2="72" stroke="#10324a" stroke-width="4"/>
    <line x1="24" y1="94" x2="132" y2="94" stroke="#10324a" stroke-width="4"/>
  </g>

  <g transform="translate(430 250)">
    <circle cx="170" cy="118" r="84" fill="#d9823a" stroke="#10324a" stroke-width="5"/>
    <path d="M93 102c12-68 122-82 168-28 27 2 29 23 8 30 18 34-3 82-28 97-12-26-23-46-45-51-25-6-55 10-75 45-22-18-35-56-28-93z" fill="#071923"/>
    <circle cx="138" cy="126" r="7" fill="#071923"/>
    <circle cx="206" cy="126" r="7" fill="#071923"/>
    <path d="M154 166c17-12 36-12 53 0" fill="none" stroke="#071923" stroke-width="7" stroke-linecap="round"/>
    <path d="M96 214c28-42 118-50 150 0l28 126H68l28-126z" fill="#1f8a70" stroke="#10324a" stroke-width="5"/>
    <path d="M134 220l42 58 42-58" fill="none" stroke="#10324a" stroke-width="5" stroke-linecap="round" stroke-linejoin="round"/>
    <path d="M112 238c30 28 78 30 126 0" fill="none" stroke="#10324a" stroke-width="5" stroke-linecap="round"/>
    <text x="302" y="110" font-family="Arial, Helvetica, sans-serif" font-size="98" font-weight="900" fill="#10324a">?</text>
    <text x="-44" y="110" font-family="Arial, Helvetica, sans-serif" font-size="98" font-weight="900" fill="#10324a">?</text>
  </g>

  <path d="M328 342c44-46 82-62 132-70" fill="none" stroke="#10324a" stroke-width="6" stroke-linecap="round"/>
  <path d="M432 248l34 21-31 25" fill="none" stroke="#10324a" stroke-width="6" stroke-linecap="round" stroke-linejoin="round"/>
  <path d="M872 342c-44-46-82-62-132-70" fill="none" stroke="#10324a" stroke-width="6" stroke-linecap="round"/>
  <path d="M768 248l-34 21 31 25" fill="none" stroke="#10324a" stroke-width="6" stroke-linecap="round" stroke-linejoin="round"/>

  <text x="72" y="574" font-family="Arial, Helvetica, sans-serif" font-size="28" font-weight="900" fill="#10324a">MyeCA.in</text>
</svg>
